<svg xmlns="http://www.w3.org/2000/svg" viewBox="0 0 463.77 340.34"><defs><style>.cls-1{fill:#fff;}</style></defs><g id="Layer_2" data-name="Layer 2"><g id="Layer_1-2" data-name="Layer 1"><path class="cls-1" d="M383.82,138.39c-4.88,20.83-44.95,36.44-60.42,41.76v-3.82c-7.06-6.23-17.21-11.21-29.1-15,5.9-5.37,16.73-17.79,15.23-34.8,0,0-2.81,21.85-23.25,32.48v.05a195.32,195.32,0,0,0-25.81-4.69c.29-.73.62-1.55,1-2.47s.73-1.93,1.11-3.09c.73-2.27,1.5-4.93,2.23-7.93.34-1.45.68-3,1-4.74.44-2.51.83-5.22,1.07-8.07.09-.92.19-1.93.24-2.9q.29-4.2.14-8.84c0-.78,0-1.5-.09-2.27-.1-1.74-.24-3.53-.44-5.32a.15.15,0,0,0,0-.2,17.51,17.51,0,0,0-.29-2.32.93.93,0,0,0-.09-.48.1.1,0,0,0,0-.14c-.1-.78-.2-1.5-.34-2.28a1,1,0,0,0-.05-.38,24.38,24.38,0,0,0-.43-2.51,5.58,5.58,0,0,0-.2-.88c0,.34.05.83.05,1.5a108.26,108.26,0,0,1-.34,14.7,1,1,0,0,1,0,.34c-.29,2.85-.67,5.89-1.25,9-.44,2.17-.92,4.39-1.55,6.62q-.44,1.66-1,3.33c-.33,1-.67,2-1.06,3a3.51,3.51,0,0,1-.24.63c-.39,1-.82,2-1.26,2.95s-1,2.13-1.59,3.14-1.16,2.08-1.79,3a40.66,40.66,0,0,1-4.35,5.61c-6.58-.48-13.15-.77-19.82-.77s-13.24.29-19.77.77a26,26,0,0,1-2.08-2.46,14.81,14.81,0,0,1-1.3-1.79c-.44-.58-.82-1.16-1.21-1.79a22.69,22.69,0,0,1-1.5-2.56.2.2,0,0,1-.1-.2c-.53-1-1-1.88-1.45-2.85-.38-.77-.72-1.54-1.06-2.37s-.68-1.69-1-2.56-.72-2-1-3-.58-2-.87-3c-.29-1.16-.58-2.32-.82-3.43-.2-.82-.34-1.6-.49-2.37-.19-1-.38-1.93-.53-2.9-.53-3.33-.82-6.48-1-9.33-.05-1-.1-1.84-.15-2.71-.14-3.53-.14-6.38,0-8.31a12.68,12.68,0,0,0,0-1.3c0-.34.05-.63.05-.88-.29,1.31-.53,2.57-.68,3.82-.14.73-.24,1.45-.34,2.18,0,.09,0,.19,0,.29-.15.92-.25,1.84-.34,2.75-.05.34-.05.73-.1,1.07a93.29,93.29,0,0,0,6.33,44.71,194.6,194.6,0,0,0-25.86,4.69l0-.05c-20.49-10.63-23.25-32.48-23.25-32.48-1.55,17,9.33,29.43,15.23,34.8-11.94,3.77-22,8.75-29.1,15v3.82c-15.47-5.32-55.54-20.93-60.47-41.76-4.69-20,7.44-27.94,13.15-30.5,1.93,6,9.08,10.58,9.08,10.58-4-4.15-6.23-11.64-6.23-11.64S82.34,73,108.93,54.38s48.68,0,48.68,0a30.53,30.53,0,0,1,10,13.34s-1-10.15-8.94-16.63C162.92,39.3,180.27,0,224.89,0h12.18c44.62,0,62,39.3,66.22,51.09-8,6.48-8.94,16.63-8.94,16.63a30.61,30.61,0,0,1,10-13.34s22.09-18.61,48.67,0,14.84,52.45,14.84,52.45-2.22,7.49-6.23,11.64a32,32,0,0,0,3.81-3,19.3,19.3,0,0,0,5.22-7.54C376.43,110.45,388.56,118.38,383.82,138.39Z"/><path class="cls-1" d="M250.8,153.42a44.93,44.93,0,0,0,4.35-5.61A40.66,40.66,0,0,1,250.8,153.42Z"/><path class="cls-1" d="M323.41,176.33v48.79c-19.79-43.49-64.73-52.16-83.69-53.87-.9-3.18-3.87-12.1-8.72-12.1s-7.84,8.92-8.75,12.1c-19,1.71-63.85,10.38-83.64,53.8V176.33c7.06-6.22,17.16-11.21,29.09-15,2.56-.81,5.27-1.59,8-2.26a195,195,0,0,1,25.85-4.7c3.16-.38,6.4-.72,9.63-.95h0c6.54-.5,13.17-.79,19.77-.79s13.26.29,19.82.79h.05c3.26.23,6.44.57,9.62.95a195,195,0,0,1,25.81,4.7c2.76.67,5.42,1.45,8,2.26C306.18,165.12,316.35,170.11,323.41,176.33Z"/><rect class="cls-1" x="124.61" y="239.86" width="212.76" height="10.76"/><path class="cls-1" d="M35.69,315.75c0,8.82-6.75,14.37-17.36,14.37H12.84v9.35H0V301.39H18.33C28.94,301.39,35.69,306.94,35.69,315.75Zm-12.95,0c0-2.77-1.69-4.46-5.22-4.46H12.84v8.93h4.68C21.05,320.22,22.74,318.53,22.74,315.75Z"/><path class="cls-1" d="M39.88,301.39H52.71v38.08H39.88Z"/><path class="cls-1" d="M54.51,334.69l6.91-8.16c2,2.5,3.92,3.75,6,3.75,2.66,0,4.13-1.63,4.13-4.73V311.08H58.65v-9.69H84.27v23.39c0,10.45-5.5,15.56-15.72,15.56C62.62,340.34,57.67,338.38,54.51,334.69Z"/><path class="cls-1" d="M115.28,332.84H100.81l-2.56,6.63H85.19l16.65-38.08h12.62l16.64,38.08H117.83Zm-3.54-9.25L108,314l-3.7,9.58Z"/><path class="cls-1" d="M149.5,329.9H146v9.57H133.18V301.39h18.33c10.61,0,17.35,5.55,17.35,14.36a12.75,12.75,0,0,1-7.18,12l8,11.75H156Zm1.19-18.61H146v8.93h4.68c3.54,0,5.22-1.69,5.22-4.47S154.23,311.29,150.69,311.29Z"/><path class="cls-1" d="M188.5,320.43c0-11.69,9-19.91,21.22-19.91,7.45,0,13.32,2.72,17.08,7.62l-8.11,7.23c-2.23-2.82-4.89-4.46-8.32-4.46-5.33,0-8.92,3.7-8.92,9.52S205,330,210.37,330c3.43,0,6.09-1.63,8.32-4.46l8.11,7.24c-3.76,4.89-9.63,7.61-17.08,7.61C197.48,340.34,188.5,332.13,188.5,320.43Z"/><path class="cls-1" d="M228.16,320.43c0-11.53,9.09-19.91,21.49-19.91s21.49,8.38,21.49,19.91-9.09,19.91-21.49,19.91S228.16,332,228.16,320.43Zm30,0c0-5.93-3.81-9.52-8.54-9.52s-8.54,3.59-8.54,9.52,3.81,9.52,8.54,9.52S258.19,326.36,258.19,320.43Z"/><path class="cls-1" d="M274.29,320.43c0-11.53,9.09-19.91,21.49-19.91s21.49,8.38,21.49,19.91-9.09,19.91-21.49,19.91S274.29,332,274.29,320.43Zm30,0c0-5.93-3.81-9.52-8.54-9.52s-8.54,3.59-8.54,9.52,3.81,9.52,8.54,9.52S304.32,326.36,304.32,320.43Z"/><path class="cls-1" d="M337.45,326.85l-2.88,3.21v9.41H322V301.39h12.62v13.82l12.51-13.82h14l-15.23,16.76,16,21.32H347Z"/><path class="cls-1" d="M363.57,301.39H376.4v38.08H363.57Z"/><path class="cls-1" d="M420.14,301.39v38.08H409.59l-14.47-17.3v17.3H382.61V301.39h10.55l14.47,17.3v-17.3Z"/><path class="cls-1" d="M451.53,319.4h11.15v16.1a30.69,30.69,0,0,1-16.59,4.84c-12.29,0-21.27-8.21-21.27-19.91s9-19.91,21.54-19.91c7.51,0,13.55,2.61,17.41,7.35l-8.21,7.23a10.89,10.89,0,0,0-8.54-4.19c-5.66,0-9.25,3.65-9.25,9.52,0,5.72,3.59,9.52,9.08,9.52a12,12,0,0,0,4.68-.92Z"/></g></g></svg>