<svg xmlns="http://www.w3.org/2000/svg" viewBox="0 0 307.81 250.62"><defs><style>.cls-1{fill:#d79aff;}</style></defs><g id="Layer_2" data-name="Layer 2"><g id="Layer_1-2" data-name="Layer 1"><path class="cls-1" d="M306.74,138.39c-4.88,20.83-45,36.44-60.43,41.76v-3.82c-7.05-6.23-17.2-11.21-29.09-15,5.89-5.37,16.72-17.79,15.22-34.8,0,0-2.8,21.85-23.25,32.48v.05a195,195,0,0,0-25.81-4.69c.29-.73.63-1.55,1-2.47s.72-1.93,1.11-3.09c.72-2.27,1.5-4.93,2.22-7.93.34-1.45.68-3,1-4.74.44-2.51.82-5.22,1.06-8.07.1-.92.2-1.93.24-2.9a85.47,85.47,0,0,0,.15-8.84c0-.78,0-1.5-.1-2.27-.09-1.74-.24-3.53-.43-5.32a.15.15,0,0,0,0-.2,19.35,19.35,0,0,0-.29-2.32.85.85,0,0,0-.1-.48c0-.05,0-.1,0-.14-.09-.78-.19-1.5-.34-2.28a1,1,0,0,0-.05-.38,22,22,0,0,0-.43-2.51,6.92,6.92,0,0,0-.19-.88c0,.34.05.83.05,1.5a110,110,0,0,1-.34,14.7,1,1,0,0,1,0,.34c-.29,2.85-.68,5.89-1.26,9-.43,2.17-.92,4.39-1.55,6.62-.28,1.11-.62,2.22-1,3.33s-.68,2-1.06,3a3.58,3.58,0,0,1-.25.63c-.38,1-.82,2-1.25,2.95s-1,2.13-1.6,3.14-1.16,2.08-1.79,3a39.17,39.17,0,0,1-4.35,5.61c-6.57-.48-13.14-.77-19.81-.77s-13.25.29-19.77.77a24.57,24.57,0,0,1-2.08-2.46,14.9,14.9,0,0,1-1.31-1.79c-.43-.58-.82-1.16-1.21-1.79a22.58,22.58,0,0,1-1.49-2.56.2.2,0,0,1-.1-.2c-.53-1-1-1.88-1.45-2.85-.39-.77-.73-1.54-1.06-2.37s-.68-1.69-1-2.56-.73-2-1-3-.58-2-.87-3c-.29-1.16-.58-2.32-.82-3.43-.19-.82-.34-1.6-.48-2.37-.2-1-.39-1.93-.53-2.9-.54-3.33-.83-6.48-1-9.33,0-1-.1-1.84-.14-2.71-.15-3.53-.15-6.38,0-8.31a12.68,12.68,0,0,0,0-1.3c0-.34,0-.63,0-.88-.28,1.31-.53,2.57-.67,3.82-.15.73-.24,1.45-.34,2.18,0,.09,0,.19,0,.29-.14.92-.24,1.84-.34,2.75,0,.34,0,.73-.09,1.07a93.29,93.29,0,0,0,6.33,44.71,194.31,194.31,0,0,0-25.86,4.69l.05-.05C78.15,148.4,75.4,126.55,75.4,126.55c-1.55,17,9.33,29.43,15.22,34.8-11.94,3.77-22,8.75-29.1,15v3.82C46.06,174.83,6,159.22,1.05,138.39c-4.68-20,7.45-27.94,13.15-30.5,1.94,6,9.09,10.58,9.09,10.58-4-4.15-6.24-11.64-6.24-11.64S5.26,73,31.84,54.38s48.68,0,48.68,0a30.53,30.53,0,0,1,10,13.34s-1-10.15-8.94-16.63C85.84,39.3,103.19,0,147.81,0H160c44.61,0,62,39.3,66.22,51.09-8,6.48-8.94,16.63-8.94,16.63a30.63,30.63,0,0,1,10-13.34s22.09-18.61,48.68,0,14.84,52.45,14.84,52.45-2.23,7.49-6.24,11.64a31.55,31.55,0,0,0,3.82-3,19.51,19.51,0,0,0,5.22-7.54C299.34,110.45,311.47,118.38,306.74,138.39Z"/><path class="cls-1" d="M173.71,153.42a43.12,43.12,0,0,0,4.35-5.61A39.17,39.17,0,0,1,173.71,153.42Z"/><path class="cls-1" d="M246.33,176.33v48.79c-19.8-43.49-64.73-52.16-83.7-53.87-.9-3.18-3.87-12.1-8.72-12.1s-7.84,8.92-8.74,12.1c-19,1.71-63.85,10.38-83.64,53.8V176.33c7-6.22,17.15-11.21,29.08-15,2.57-.81,5.28-1.59,8-2.26a194.88,194.88,0,0,1,25.86-4.7c3.16-.38,6.39-.72,9.62-.95h.05c6.53-.5,13.16-.79,19.77-.79s13.26.29,19.82.79h0c3.25.23,6.43.57,9.62.95a195,195,0,0,1,25.81,4.7c2.75.67,5.41,1.45,8,2.26C229.1,165.12,239.27,170.11,246.33,176.33Z"/><rect class="cls-1" x="47.53" y="239.86" width="212.76" height="10.76"/></g></g></svg>